<svg xmlns="http://www.w3.org/2000/svg" x="0" y="0" version="1.1" viewBox="0 0 522.657 101.019" xml:space="preserve"><g fill="#f49e39"><path d="M6.245 50.509c0-24.447 19.818-44.265 44.265-44.265a44.16 44.16 0 0 1 15.663 2.855 14.892 14.892 0 0 1 3.634-5.278A50.344 50.344 0 0 0 50.509 0C22.614 0 0 22.614 0 50.509A50.27 50.27 0 0 0 8.054 77.88a14.947 14.947 0 0 1 4.467-4.641 44.053 44.053 0 0 1-6.276-22.73zm86.341-27.945a14.948 14.948 0 0 1-4.48 4.578 44.055 44.055 0 0 1 6.667 23.368c0 24.447-19.818 44.265-44.265 44.265a44.16 44.16 0 0 1-16.178-3.05 14.924 14.924 0 0 1-3.85 5.165 50.329 50.329 0 0 0 20.028 4.13c27.896 0 50.509-22.614 50.509-50.509a50.246 50.246 0 0 0-8.431-27.947z"/><circle cx="80.223" cy="14.43" r="8.854"/><circle cx="20.557" cy="86.026" r="8.854"/></g><path d="M50.509 18.005c-17.951 0-32.504 14.553-32.504 32.504s14.553 32.504 32.504 32.504S83.013 68.46 83.013 50.509 68.461 18.005 50.509 18.005zm7.439 46.703c-2.116 1.693-5.059 2.539-8.831 2.539-3.474 0-6.548-.653-9.221-1.96v-6.414c2.197.98 4.057 1.67 5.579 2.071 1.522.401 2.914.601 4.176.601 1.514 0 2.676-.29 3.486-.869.809-.579 1.214-1.44 1.214-2.584a2.85 2.85 0 0 0-.535-1.704c-.356-.497-.88-.976-1.57-1.437-.69-.46-2.097-1.195-4.221-2.205-1.99-.935-3.482-1.834-4.477-2.695a10.105 10.105 0 0 1-2.383-3.007c-.594-1.143-.891-2.48-.891-4.009 0-2.881.976-5.145 2.929-6.793 1.952-1.648 4.651-2.472 8.096-2.472 1.693 0 3.307.2 4.844.601 1.537.401 3.144.965 4.822 1.693l-2.227 5.368c-1.737-.713-3.174-1.21-4.31-1.492a13.877 13.877 0 0 0-3.352-.423c-1.307 0-2.309.304-3.007.913s-1.047 1.403-1.047 2.383c0 .609.141 1.14.423 1.592.282.453.731.891 1.347 1.314.616.423 2.075 1.184 4.376 2.283 3.044 1.455 5.13 2.914 6.258 4.376 1.128 1.463 1.693 3.255 1.693 5.379.003 2.942-1.055 5.258-3.171 6.951z" fill="#fff"/><circle fill="#f5a11d" cx="319.481" cy="76.541" r="4.826"/><path d="M124.245 68.543V65.77c0-.808.403-1.213 1.213-1.213h3.899c.808 0 1.213.405 1.213 1.213v2.253c0 5.199 2.57 7.799 7.712 7.799h7.625c5.141 0 7.712-2.656 7.712-7.972v-2.946c0-4.159-3.438-6.874-10.311-8.145a153.304 153.304 0 0 1-8.665-1.82c-2.889-.693-5.344-2.036-7.365-4.029-2.023-1.993-3.033-4.722-3.033-8.189v-4.246c0-3.986 1.14-7.119 3.423-9.402 2.281-2.281 5.416-3.423 9.402-3.423h9.618c3.928 0 7.047 1.141 9.358 3.423 2.31 2.283 3.466 5.416 3.466 9.402v2.166c0 .866-.376 1.3-1.127 1.3h-3.986c-.751 0-1.126-.433-1.126-1.3v-1.56c0-5.256-2.571-7.885-7.712-7.885h-7.365c-5.142 0-7.712 2.744-7.712 8.232v3.466c0 2.946 1.935 4.969 5.806 6.066 1.733.463 3.639.881 5.719 1.256 2.08.376 4.173.867 6.282 1.473 2.108.607 4.029 1.358 5.762 2.253 1.733.896 3.133 2.253 4.203 4.073 1.068 1.82 1.603 4.029 1.603 6.629v3.899c0 3.986-1.156 7.12-3.466 9.402-2.311 2.283-5.43 3.423-9.358 3.423h-9.965c-3.929 0-7.049-1.14-9.358-3.423-2.313-2.281-3.467-5.416-3.467-9.402zm78.851 12.825h-27.208c-.81 0-1.213-.403-1.213-1.213v-53.29c0-.808.403-1.213 1.213-1.213h27.208c.808 0 1.213.405 1.213 1.213v3.119c0 .81-.405 1.213-1.213 1.213h-21.229c-.578 0-.867.26-.867.78V49.48c0 .52.288.78.867.78h18.543c.808 0 1.213.405 1.213 1.213v3.119c0 .81-.405 1.213-1.213 1.213h-18.543c-.578 0-.867.26-.867.78v18.456c0 .52.288.78.867.78h21.229c.808 0 1.213.405 1.213 1.213v3.119c0 .811-.405 1.215-1.213 1.215zm37.259 0h-10.398c-3.986 0-7.12-1.127-9.402-3.379-2.283-2.253-3.423-5.401-3.423-9.445V38.476c0-4.043 1.14-7.192 3.423-9.445 2.281-2.253 5.416-3.379 9.402-3.379h10.398c3.986 0 7.119 1.127 9.402 3.379 2.281 2.253 3.423 5.402 3.423 9.445v4.246c0 .81-.405 1.213-1.213 1.213h-3.899c-.81 0-1.213-.403-1.213-1.213v-3.986c0-5.026-2.426-7.539-7.279-7.539h-8.925c-4.796 0-7.192 2.513-7.192 7.539v29.548c0 5.026 2.396 7.539 7.192 7.539h8.925c4.852 0 7.279-2.513 7.279-7.539v-3.986c0-.808.403-1.213 1.213-1.213h3.899c.808 0 1.213.405 1.213 1.213v4.246c0 4.044-1.141 7.192-3.423 9.445-2.283 2.252-5.416 3.379-9.402 3.379zm55.888-55.716h3.899c.808 0 1.213.376 1.213 1.127v41.765c0 4.044-1.126 7.192-3.379 9.445s-5.372 3.379-9.358 3.379H279c-3.986 0-7.12-1.127-9.402-3.379-2.283-2.253-3.423-5.401-3.423-9.445V26.865c0-.808.403-1.213 1.213-1.213h3.899c.808 0 1.213.405 1.213 1.213v41.419c0 5.026 2.396 7.539 7.192 7.539h8.145c4.852 0 7.279-2.513 7.279-7.539V26.865c.001-.809.376-1.213 1.127-1.213zm25.214 40.691h-3.899c-.81 0-1.213-.403-1.213-1.213V26.865c0-.808.403-1.213 1.213-1.213h19.93c3.986 0 7.134 1.141 9.445 3.423 2.31 2.283 3.466 5.416 3.466 9.402v7.885c0 3.236-.78 5.907-2.34 8.015-1.56 2.109-3.726 3.509-6.499 4.203v.347l10.051 21.056c.52.925.23 1.386-.867 1.386h-3.899c-.983 0-1.705-.403-2.166-1.213l-9.705-20.969h-11.438c-.578 0-.867.26-.867.78v5.165c.002.808-.403 1.211-1.212 1.211zm2.08-12.443h13.084c4.968 0 7.452-2.483 7.452-7.452v-7.712c0-5.026-2.484-7.539-7.452-7.539h-13.084c-.578 0-.867.26-.867.78V53.12c.001.52.289.78.867.78zm47.83-27.035v53.29c0 .81-.405 1.213-1.213 1.213h-3.899c-.81 0-1.213-.403-1.213-1.213v-53.29c0-.808.403-1.213 1.213-1.213h3.899c.808 0 1.213.404 1.213 1.213zm29.461 54.503h-3.899c-.81 0-1.213-.403-1.213-1.213V31.977c0-.52-.29-.78-.866-.78h-11.784c-.867 0-1.3-.404-1.3-1.213v-3.119c0-.808.433-1.213 1.3-1.213h31.627c.867 0 1.3.405 1.3 1.213v3.119c0 .81-.433 1.213-1.3 1.213h-11.784c-.578 0-.867.26-.867.78v48.178c-.001.809-.406 1.213-1.214 1.213zm31.886-54.503v53.29c0 .81-.405 1.213-1.213 1.213h-3.899c-.81 0-1.213-.403-1.213-1.213v-53.29c0-.808.403-1.213 1.213-1.213h3.899c.808 0 1.213.404 1.213 1.213zm12.824 53.29v-3.119c0-1.04.173-1.79.52-2.253l26.861-42.892v-.347h-25.042c-.81 0-1.213-.403-1.213-1.213v-3.466c0-.808.403-1.213 1.213-1.213h30.674c.808 0 1.213.405 1.213 1.213v4.159c0 .925-.231 1.733-.693 2.426l-26.168 41.679v.347h26.515c.808 0 1.213.376 1.213 1.127v3.466c0 .866-.405 1.3-1.213 1.3h-32.667c-.809-.001-1.213-.405-1.213-1.214zm75.905 1.213h-27.208c-.81 0-1.213-.403-1.213-1.213v-53.29c0-.808.403-1.213 1.213-1.213h27.208c.808 0 1.213.405 1.213 1.213v3.119c0 .81-.405 1.213-1.213 1.213h-21.229c-.578 0-.867.26-.867.78V49.48c0 .52.288.78.867.78h18.543c.808 0 1.213.405 1.213 1.213v3.119c0 .81-.405 1.213-1.213 1.213h-18.543c-.578 0-.867.26-.867.78v18.456c0 .52.288.78.867.78h21.229c.808 0 1.213.405 1.213 1.213v3.119c.001.811-.404 1.215-1.213 1.215z" fill="#fff"/></svg>